<svg width="607" height="600" viewBox="0 0 607 600" fill="none" xmlns="http://www.w3.org/2000/svg">
<path fill-rule="evenodd" clip-rule="evenodd" d="M134 400C78.7715 400 34 355.228 34 300C34 244.772 78.7715 200 134 200C160.491 200 184.576 210.301 202.468 227.116L331.873 136.506C327.436 125.196 325 112.883 325 100C325 44.7715 369.772 0 425 0C480.228 0 525 44.7715 525 100C525 155.228 480.228 200 425 200C396.701 200 371.148 188.245 352.957 169.353L225.162 258.836C230.839 271.39 234 285.326 234 300C234 316.649 229.931 332.348 222.734 346.157L349.234 434.733C367.572 413.464 394.714 400 425 400C480.228 400 525 444.772 525 500C525 555.228 480.228 600 425 600C369.772 600 325 555.228 325 500C325 489.12 326.737 478.646 329.95 468.84L198.256 376.627C180.877 391.215 158.465 400 134 400ZM205.544 309.906C201.489 290.191 181.131 285.729 170.572 285.567C170.399 284.951 170.215 284.277 170.019 283.556L170.019 283.554C167.63 274.767 162.187 258.687 152.325 256.36C141.818 253.882 136.674 256.683 133.188 258.582C131.881 259.294 130.807 259.879 129.771 260.011C128.52 260.171 125.541 260.055 121.818 259.908C115.821 259.673 107.894 259.362 102.148 260.011C93.5316 260.985 89.2234 283.052 87.4495 294.572C100.627 302.361 119.381 311.609 149.284 310.879C167.277 310.44 173.782 300.819 173.359 297.249C174.795 299.683 177.161 305.281 177.161 309.175C177.161 314.043 174.373 322.756 160.688 324.509C133.219 328.026 116.915 320.423 105.613 315.152L105.612 315.152L105.61 315.151L105.605 315.149C104.398 314.586 103.248 314.05 102.148 313.556C97.0669 311.279 94.0988 308.277 91.1591 305.304C87.5008 301.604 83.8865 297.948 76.299 295.789C63.6968 292.203 51.9705 301.63 52.4774 309.906C52.9409 317.473 68.1089 318.469 80.6071 317.937C93.5076 317.389 103.271 323.311 114.531 330.141C115.148 330.516 115.769 330.894 116.392 331.274C129.643 339.346 144.544 348.423 170.825 349.091C198.701 347.874 209.412 328.714 205.544 309.906Z" fill="#6A0101"/>
<path d="M101.063 264.555L100.588 264.946C99.53 265.817 99.4688 267.417 100.457 268.366C101.035 268.921 101.861 269.134 102.634 268.927L103.229 268.769C105.505 268.162 105.665 264.993 103.462 264.159C102.649 263.852 101.734 264.003 101.063 264.555Z" fill="#6A0101"/>
<path d="M97.3971 282.066L97.6339 282.293C98.2808 282.914 99.2867 282.964 99.992 282.41C100.827 281.754 100.915 280.521 100.182 279.753L99.9552 279.515C99.2878 278.816 98.1884 278.766 97.4603 279.402C96.6617 280.099 96.6324 281.331 97.3971 282.066Z" fill="#6A0101"/>
<path d="M91.8218 293.018L92.0586 293.245C92.7056 293.867 93.7114 293.917 94.4167 293.362C95.2517 292.706 95.3398 291.473 94.6066 290.705L94.3799 290.468C93.7126 289.769 92.6131 289.719 91.8851 290.354C91.0864 291.052 91.0572 292.284 91.8218 293.018Z" fill="#6A0101"/>
<path d="M69.3016 303.845L69.471 303.959C70.6018 304.714 72.1254 304.459 72.9476 303.375C73.7106 302.37 73.6308 300.959 72.7593 300.046L72.6187 299.899C71.9259 299.173 70.8766 298.912 69.9245 299.228C67.877 299.909 67.5077 302.646 69.3016 303.845Z" fill="#6A0101"/>
<path d="M62.7698 311.759L63.0066 311.986C63.6536 312.607 64.6594 312.657 65.3647 312.103C66.1997 311.447 66.2878 310.214 65.5546 309.446L65.3279 309.209C64.6606 308.509 63.5611 308.459 62.833 309.095C62.0344 309.792 62.0051 311.024 62.7698 311.759Z" fill="#6A0101"/>
<path d="M80.7627 311.759L80.9995 311.986C81.6465 312.608 82.6523 312.657 83.3576 312.103C84.1926 311.447 84.2807 310.214 83.5475 309.446L83.3208 309.209C82.6535 308.509 81.554 308.459 80.8259 309.095C80.0273 309.792 79.998 311.024 80.7627 311.759Z" fill="#6A0101"/>
<path d="M110.16 323.928L110.396 324.155C111.043 324.777 112.049 324.827 112.755 324.273C113.59 323.616 113.678 322.384 112.944 321.615L112.718 321.378C112.05 320.679 110.951 320.629 110.223 321.264C109.424 321.962 109.395 323.194 110.16 323.928Z" fill="#6A0101"/>
<path d="M137.184 330.738L136.712 331.021C135.727 331.613 135.696 333.03 136.656 333.664L137.47 334.201C138.169 334.663 139.085 334.625 139.744 334.108C140.647 333.398 140.742 332.065 139.949 331.234L139.814 331.092C139.128 330.374 138.036 330.227 137.184 330.738Z" fill="#6A0101"/>
<path d="M157.156 331.975L157.919 333.065C158.459 333.838 159.538 333.997 160.28 333.415C161.042 332.816 161.123 331.69 160.453 330.989L159.535 330.026C159.151 329.625 158.582 329.46 158.043 329.596C156.996 329.859 156.537 331.09 157.156 331.975Z" fill="#6A0101"/>
<path d="M154.001 341.695L154.238 341.923C154.885 342.544 155.891 342.594 156.596 342.04C157.431 341.384 157.519 340.151 156.786 339.383L156.56 339.145C155.892 338.446 154.793 338.396 154.065 339.032C153.266 339.729 153.237 340.961 154.001 341.695Z" fill="#6A0101"/>
<path d="M174.275 341.695L174.512 341.923C175.159 342.544 176.165 342.594 176.87 342.04C177.705 341.384 177.793 340.151 177.06 339.383L176.833 339.145C176.166 338.446 175.067 338.396 174.339 339.032C173.54 339.729 173.511 340.961 174.275 341.695Z" fill="#6A0101"/>
<path d="M193.535 336.097L193.772 336.325C194.419 336.946 195.425 336.996 196.13 336.442C196.965 335.786 197.053 334.553 196.32 333.785L196.093 333.547C195.426 332.848 194.327 332.798 193.599 333.434C192.8 334.131 192.771 335.363 193.535 336.097Z" fill="#6A0101"/>
<path d="M184.376 325.597L184.654 325.864C185.443 326.622 186.671 326.683 187.531 326.007C188.295 325.407 188.574 324.377 188.217 323.474L188.075 323.115C187.326 321.218 184.653 321.185 183.856 323.062C183.487 323.933 183.694 324.942 184.376 325.597Z" fill="#6A0101"/>
<path d="M170.382 325.383L170.234 325.472C168.595 326.456 168.975 328.932 170.834 329.379C171.469 329.531 172.138 329.385 172.651 328.981L172.788 328.874C173.773 328.1 173.877 326.645 173.012 325.738C172.326 325.019 171.234 324.872 170.382 325.383Z" fill="#6A0101"/>
<path d="M181.878 309.568L182.115 309.796C182.762 310.417 183.767 310.467 184.473 309.913C185.308 309.257 185.396 308.024 184.663 307.256L184.436 307.018C183.768 306.319 182.669 306.269 181.941 306.905C181.142 307.602 181.113 308.834 181.878 309.568Z" fill="#6A0101"/>
<path d="M190.657 301.221L191.894 302.231C192.879 303.035 194.364 302.452 194.538 301.193C194.607 300.701 194.447 300.204 194.103 299.844L193.001 298.689C192.362 298.02 191.31 297.972 190.614 298.58C189.807 299.284 189.828 300.544 190.657 301.221Z" fill="#6A0101"/>
<path d="M197.523 319.332L197.788 319.479C198.495 319.872 199.369 319.803 200.004 319.303C200.936 318.571 201.034 317.195 200.216 316.338L200.007 316.119C199.382 315.464 198.403 315.296 197.595 315.704C196.125 316.447 196.084 318.531 197.523 319.332Z" fill="#6A0101"/>
<path d="M181.878 295.452L182.115 295.679C182.762 296.301 183.767 296.35 184.473 295.796C185.308 295.14 185.396 293.907 184.663 293.139L184.436 292.902C183.768 292.202 182.669 292.152 181.941 292.788C181.142 293.485 181.113 294.717 181.878 295.452Z" fill="#6A0101"/>
<path d="M164.392 290.827L164.628 291.055C165.275 291.676 166.281 291.726 166.987 291.172C167.822 290.516 167.91 289.283 167.176 288.515L166.95 288.277C166.282 287.578 165.183 287.528 164.455 288.164C163.656 288.861 163.627 290.093 164.392 290.827Z" fill="#6A0101"/>
<path d="M158.31 299.833L158.546 300.06C159.193 300.682 160.199 300.731 160.904 300.177C161.739 299.521 161.828 298.288 161.094 297.52L160.868 297.283C160.2 296.583 159.101 296.533 158.373 297.169C157.574 297.866 157.545 299.098 158.31 299.833Z" fill="#6A0101"/>
<path d="M145.385 302.753L145.622 302.981C146.269 303.602 147.275 303.652 147.98 303.098C148.815 302.442 148.903 301.209 148.17 300.441L147.943 300.203C147.276 299.504 146.177 299.454 145.448 300.09C144.65 300.787 144.621 302.019 145.385 302.753Z" fill="#6A0101"/>
<path d="M148.541 286.628L148.074 287.053C147.221 287.829 147.203 289.165 148.035 289.965C148.751 290.653 149.865 290.708 150.647 290.094L151.143 289.704C151.717 289.253 152.002 288.528 151.89 287.808C151.642 286.221 149.729 285.547 148.541 286.628Z" fill="#6A0101"/>
<path d="M146.097 280.316L146.294 280.504C146.846 281.035 147.705 281.077 148.307 280.604C149.149 279.943 149.072 278.645 148.159 278.086L147.926 277.944C147.507 277.688 146.989 277.652 146.538 277.849C145.554 278.279 145.323 279.572 146.097 280.316Z" fill="#6A0101"/>
<path d="M139.743 270.742L139.93 271.069C140.726 272.459 142.714 272.505 143.574 271.154C144.1 270.327 143.994 269.249 143.318 268.54L143.058 268.268C142.288 267.461 141.02 267.404 140.18 268.137C139.432 268.79 139.249 269.88 139.743 270.742Z" fill="#6A0101"/>
<path d="M145.892 260.891L146.129 261.118C146.776 261.74 147.782 261.79 148.487 261.235C149.322 260.579 149.41 259.346 148.677 258.578L148.45 258.341C147.783 257.642 146.683 257.591 145.955 258.227C145.157 258.924 145.127 260.156 145.892 260.891Z" fill="#6A0101"/>
<path d="M153.761 266.841L153.923 267.193C154.706 268.904 157.122 268.943 157.961 267.259C158.381 266.415 158.227 265.398 157.576 264.716L157.308 264.435C156.506 263.595 155.183 263.534 154.308 264.299C153.583 264.932 153.36 265.966 153.761 266.841Z" fill="#6A0101"/>
<path d="M159.577 277.685L159.813 277.912C160.46 278.533 161.466 278.583 162.172 278.029C163.007 277.373 163.095 276.14 162.361 275.372L162.135 275.134C161.467 274.435 160.368 274.385 159.64 275.021C158.841 275.718 158.812 276.95 159.577 277.685Z" fill="#6A0101"/>
<path d="M130.434 292.531L130.67 292.759C131.317 293.38 132.323 293.43 133.028 292.876C133.863 292.219 133.952 290.987 133.218 290.218L132.992 289.981C132.324 289.282 131.225 289.232 130.497 289.867C129.698 290.565 129.669 291.797 130.434 292.531Z" fill="#6A0101"/>
<path d="M129.035 304.701L129.272 304.928C129.919 305.549 130.925 305.599 131.63 305.045C132.465 304.389 132.553 303.156 131.82 302.388L131.593 302.15C130.926 301.451 129.826 301.401 129.098 302.037C128.3 302.734 128.27 303.966 129.035 304.701Z" fill="#6A0101"/>
<path d="M118.523 297.886L118.76 298.113C119.406 298.734 120.412 298.784 121.118 298.23C121.953 297.574 122.041 296.341 121.307 295.573L121.081 295.336C120.413 294.636 119.314 294.586 118.586 295.222C117.787 295.919 117.758 297.151 118.523 297.886Z" fill="#6A0101"/>
<path d="M105.598 298.372L105.835 298.6C106.482 299.221 107.488 299.271 108.193 298.717C109.028 298.061 109.116 296.828 108.383 296.06L108.156 295.822C107.489 295.123 106.39 295.073 105.661 295.709C104.863 296.406 104.834 297.638 105.598 298.372Z" fill="#6A0101"/>
<path d="M110.16 284.986L110.396 285.214C111.043 285.835 112.049 285.885 112.755 285.331C113.59 284.674 113.678 283.442 112.944 282.674L112.718 282.436C112.05 281.737 110.951 281.687 110.223 282.323C109.424 283.02 109.395 284.252 110.16 284.986Z" fill="#6A0101"/>
<path d="M121.31 282.552L121.547 282.78C122.194 283.401 123.2 283.451 123.905 282.897C124.74 282.241 124.828 281.008 124.095 280.24L123.868 280.002C123.201 279.303 122.102 279.253 121.374 279.889C120.575 280.586 120.546 281.818 121.31 282.552Z" fill="#6A0101"/>
<path d="M113.454 272.817L113.691 273.044C114.338 273.666 115.344 273.716 116.049 273.161C116.884 272.505 116.972 271.272 116.239 270.504L116.012 270.267C115.345 269.567 114.245 269.517 113.517 270.153C112.719 270.85 112.689 272.082 113.454 272.817Z" fill="#6A0101"/>
<path d="M125.872 267.462L126.109 267.69C126.756 268.311 127.762 268.361 128.467 267.807C129.302 267.151 129.39 265.918 128.657 265.15L128.43 264.912C127.763 264.213 126.663 264.163 125.935 264.799C125.137 265.496 125.107 266.728 125.872 267.462Z" fill="#6A0101"/>
<path d="M133.221 280.118L133.458 280.346C134.105 280.967 135.111 281.017 135.816 280.463C136.651 279.807 136.739 278.574 136.006 277.806L135.779 277.568C135.112 276.869 134.012 276.819 133.284 277.455C132.486 278.152 132.456 279.384 133.221 280.118Z" fill="#6A0101"/>
<path d="M102.853 49.436C98.8242 49.436 95.6528 50.7251 93.3384 53.3032C91.0239 55.8813 89.8667 59.4116 89.8667 63.894C89.8667 68.479 90.958 72.0386 93.1406 74.5728C95.3232 77.1069 98.4434 78.374 102.501 78.374C105.196 78.374 107.672 78.0298 109.928 77.3413V79.3188C107.804 80.0659 105.152 80.4395 101.974 80.4395C97.4619 80.4395 93.9097 78.9819 91.3169 76.0669C88.7241 73.1519 87.4277 69.0796 87.4277 63.8501C87.4277 60.5835 88.043 57.7051 89.2734 55.2148C90.5186 52.7246 92.2983 50.8057 94.6128 49.458C96.9419 48.0957 99.6445 47.4146 102.721 47.4146C105.855 47.4146 108.661 48.0005 111.136 49.1724L110.235 51.1938C107.892 50.022 105.431 49.436 102.853 49.436ZM125.946 55.6543C126.957 55.6543 128.041 55.7568 129.198 55.9619L128.78 58.0493C127.784 57.8003 126.751 57.6758 125.682 57.6758C123.646 57.6758 121.976 58.54 120.672 60.2686C119.369 61.9971 118.717 64.1797 118.717 66.8164V80H116.542V56.1157H118.387L118.607 60.4224H118.761C119.742 58.6646 120.79 57.4341 121.903 56.731C123.016 56.0132 124.364 55.6543 125.946 55.6543ZM143.722 80.4395C140.25 80.4395 137.54 79.3701 135.592 77.2314C133.658 75.0928 132.691 72.0972 132.691 68.2446C132.691 64.436 133.629 61.3892 135.504 59.104C137.379 56.8042 139.906 55.6543 143.084 55.6543C145.897 55.6543 148.116 56.6357 149.742 58.5986C151.368 60.5615 152.181 63.2275 152.181 66.5967V68.3545H134.977C135.006 71.6357 135.768 74.1406 137.262 75.8691C138.771 77.5977 140.924 78.4619 143.722 78.4619C145.084 78.4619 146.278 78.3667 147.303 78.1763C148.343 77.9858 149.654 77.5757 151.236 76.9458V78.9233C149.889 79.5093 148.644 79.9048 147.501 80.1099C146.358 80.3296 145.099 80.4395 143.722 80.4395ZM143.084 57.5879C140.785 57.5879 138.939 58.3496 137.547 59.873C136.156 61.3818 135.343 63.5645 135.108 66.4209H149.874C149.874 63.6523 149.273 61.4917 148.072 59.939C146.871 58.3716 145.208 57.5879 143.084 57.5879ZM173.275 80L172.726 76.2207H172.55C171.349 77.7588 170.111 78.8501 168.836 79.4946C167.577 80.1245 166.083 80.4395 164.354 80.4395C162.01 80.4395 160.187 79.8389 158.883 78.6377C157.579 77.4365 156.927 75.7739 156.927 73.6499C156.927 71.3208 157.894 69.5117 159.828 68.2227C161.776 66.9336 164.588 66.2524 168.265 66.1792L172.813 66.0474V64.4653C172.813 62.1948 172.352 60.481 171.429 59.3237C170.506 58.1665 169.02 57.5879 166.969 57.5879C164.757 57.5879 162.464 58.2031 160.091 59.4336L159.278 57.5439C161.9 56.3135 164.493 55.6982 167.057 55.6982C169.679 55.6982 171.634 56.3794 172.923 57.7417C174.227 59.104 174.879 61.228 174.879 64.1138V80H173.275ZM164.486 78.4619C167.035 78.4619 169.042 77.7368 170.506 76.2866C171.986 74.8218 172.726 72.793 172.726 70.2002V67.8491L168.551 68.0249C165.196 68.186 162.801 68.7134 161.366 69.6069C159.945 70.4858 159.234 71.8628 159.234 73.7378C159.234 75.2319 159.688 76.3965 160.597 77.2314C161.52 78.0518 162.816 78.4619 164.486 78.4619ZM188.941 78.5059C190.318 78.5059 191.52 78.3887 192.545 78.1543V79.9121C191.49 80.2637 190.274 80.4395 188.897 80.4395C186.788 80.4395 185.228 79.8755 184.217 78.7476C183.221 77.6196 182.723 75.8472 182.723 73.4302V58.0054H179.186V56.731L182.723 55.7422L183.822 50.3369H184.942V56.1157H191.952V58.0054H184.942V73.1226C184.942 74.9536 185.265 76.3086 185.909 77.1875C186.554 78.0664 187.564 78.5059 188.941 78.5059ZM207.354 80.4395C203.883 80.4395 201.173 79.3701 199.225 77.2314C197.291 75.0928 196.324 72.0972 196.324 68.2446C196.324 64.436 197.262 61.3892 199.137 59.104C201.012 56.8042 203.539 55.6543 206.717 55.6543C209.53 55.6543 211.749 56.6357 213.375 58.5986C215.001 60.5615 215.814 63.2275 215.814 66.5967V68.3545H198.609C198.639 71.6357 199.4 74.1406 200.895 75.8691C202.403 77.5977 204.557 78.4619 207.354 78.4619C208.717 78.4619 209.911 78.3667 210.936 78.1763C211.976 77.9858 213.287 77.5757 214.869 76.9458V78.9233C213.521 79.5093 212.276 79.9048 211.134 80.1099C209.991 80.3296 208.731 80.4395 207.354 80.4395ZM206.717 57.5879C204.417 57.5879 202.572 58.3496 201.18 59.873C199.789 61.3818 198.976 63.5645 198.741 66.4209H213.507C213.507 63.6523 212.906 61.4917 211.705 59.939C210.504 58.3716 208.841 57.5879 206.717 57.5879Z" fill="black"/>
<path d="M115.201 546.716C115.201 549.397 114.212 551.521 112.235 553.088C110.272 554.656 107.657 555.439 104.391 555.439C100.465 555.439 97.4546 555.007 95.3599 554.143V551.902C97.6743 552.883 100.626 553.374 104.215 553.374C106.852 553.374 108.939 552.773 110.477 551.572C112.03 550.356 112.806 548.767 112.806 546.804C112.806 545.588 112.55 544.585 112.037 543.794C111.524 542.988 110.689 542.256 109.532 541.597C108.375 540.938 106.676 540.227 104.435 539.465C101.153 538.337 98.8828 537.122 97.623 535.818C96.3779 534.5 95.7554 532.749 95.7554 530.566C95.7554 528.164 96.6929 526.208 98.5679 524.7C100.458 523.176 102.882 522.415 105.841 522.415C108.858 522.415 111.693 522.986 114.344 524.128L113.531 526.062C110.865 524.949 108.316 524.392 105.885 524.392C103.512 524.392 101.622 524.941 100.216 526.04C98.8096 527.139 98.1064 528.633 98.1064 530.522C98.1064 531.709 98.3188 532.683 98.7437 533.445C99.1831 534.207 99.8936 534.895 100.875 535.51C101.856 536.111 103.541 536.836 105.929 537.686C108.434 538.55 110.316 539.392 111.576 540.212C112.835 541.018 113.751 541.941 114.322 542.981C114.908 544.006 115.201 545.251 115.201 546.716ZM138.097 555V539.509C138.097 537.107 137.591 535.364 136.581 534.28C135.57 533.181 134.002 532.632 131.878 532.632C129.022 532.632 126.927 533.357 125.594 534.807C124.276 536.243 123.617 538.579 123.617 541.816V555H121.441V520.811H123.617V531.687L123.507 534.741H123.661C124.554 533.306 125.682 532.266 127.044 531.621C128.407 530.977 130.099 530.654 132.12 530.654C137.54 530.654 140.25 533.562 140.25 539.377V555H138.097ZM162.486 555L161.937 551.221H161.761C160.56 552.759 159.322 553.85 158.048 554.495C156.788 555.125 155.294 555.439 153.565 555.439C151.222 555.439 149.398 554.839 148.094 553.638C146.791 552.437 146.139 550.774 146.139 548.65C146.139 546.321 147.105 544.512 149.039 543.223C150.987 541.934 153.8 541.252 157.477 541.179L162.025 541.047V539.465C162.025 537.195 161.563 535.481 160.641 534.324C159.718 533.167 158.231 532.588 156.18 532.588C153.968 532.588 151.676 533.203 149.303 534.434L148.49 532.544C151.112 531.313 153.705 530.698 156.268 530.698C158.89 530.698 160.846 531.379 162.135 532.742C163.438 534.104 164.09 536.228 164.09 539.114V555H162.486ZM153.697 553.462C156.246 553.462 158.253 552.737 159.718 551.287C161.197 549.822 161.937 547.793 161.937 545.2V542.849L157.762 543.025C154.408 543.186 152.013 543.713 150.577 544.607C149.156 545.486 148.446 546.863 148.446 548.738C148.446 550.232 148.9 551.396 149.808 552.231C150.731 553.052 152.027 553.462 153.697 553.462ZM181.251 530.654C182.262 530.654 183.346 530.757 184.503 530.962L184.085 533.049C183.089 532.8 182.057 532.676 180.987 532.676C178.951 532.676 177.281 533.54 175.978 535.269C174.674 536.997 174.022 539.18 174.022 541.816V555H171.847V531.116H173.692L173.912 535.422H174.066C175.047 533.665 176.095 532.434 177.208 531.731C178.321 531.013 179.669 530.654 181.251 530.654ZM199.027 555.439C195.555 555.439 192.845 554.37 190.897 552.231C188.963 550.093 187.997 547.097 187.997 543.245C187.997 539.436 188.934 536.389 190.809 534.104C192.684 531.804 195.211 530.654 198.39 530.654C201.202 530.654 203.421 531.636 205.047 533.599C206.673 535.562 207.486 538.228 207.486 541.597V543.354H190.282C190.311 546.636 191.073 549.141 192.567 550.869C194.076 552.598 196.229 553.462 199.027 553.462C200.389 553.462 201.583 553.367 202.608 553.176C203.648 552.986 204.959 552.576 206.542 551.946V553.923C205.194 554.509 203.949 554.905 202.806 555.11C201.664 555.33 200.404 555.439 199.027 555.439ZM198.39 532.588C196.09 532.588 194.244 533.35 192.853 534.873C191.461 536.382 190.648 538.564 190.414 541.421H205.179C205.179 538.652 204.579 536.492 203.377 534.939C202.176 533.372 200.514 532.588 198.39 532.588Z" fill="black"/>
<path d="M377.472 287.436C373.444 287.436 370.272 288.725 367.958 291.303C365.644 293.881 364.486 297.412 364.486 301.894C364.486 306.479 365.578 310.039 367.76 312.573C369.943 315.107 373.063 316.374 377.121 316.374C379.816 316.374 382.292 316.03 384.547 315.341V317.319C382.423 318.066 379.772 318.439 376.593 318.439C372.082 318.439 368.529 316.982 365.937 314.067C363.344 311.152 362.047 307.08 362.047 301.85C362.047 298.583 362.663 295.705 363.893 293.215C365.138 290.725 366.918 288.806 369.232 287.458C371.562 286.096 374.264 285.415 377.34 285.415C380.475 285.415 383.28 286 385.756 287.172L384.855 289.194C382.511 288.022 380.05 287.436 377.472 287.436ZM410.915 306.025C410.915 309.921 409.97 312.968 408.08 315.166C406.19 317.348 403.583 318.439 400.258 318.439C398.163 318.439 396.317 317.934 394.721 316.923C393.124 315.913 391.901 314.462 391.051 312.573C390.202 310.683 389.777 308.5 389.777 306.025C389.777 302.128 390.722 299.096 392.611 296.928C394.501 294.746 397.094 293.654 400.39 293.654C403.671 293.654 406.242 294.76 408.102 296.972C409.977 299.169 410.915 302.187 410.915 306.025ZM392.062 306.025C392.062 309.306 392.78 311.87 394.215 313.715C395.666 315.546 397.709 316.462 400.346 316.462C402.982 316.462 405.019 315.546 406.454 313.715C407.904 311.87 408.629 309.306 408.629 306.025C408.629 302.729 407.897 300.173 406.432 298.356C404.982 296.54 402.938 295.632 400.302 295.632C397.665 295.632 395.629 296.54 394.193 298.356C392.772 300.158 392.062 302.714 392.062 306.025ZM434.184 318V302.509C434.184 300.107 433.678 298.364 432.667 297.28C431.657 296.181 430.089 295.632 427.965 295.632C425.109 295.632 423.014 296.357 421.681 297.807C420.363 299.243 419.704 301.579 419.704 304.816V318H417.528V294.116H419.374L419.792 297.39H419.923C421.476 294.899 424.237 293.654 428.207 293.654C433.627 293.654 436.337 296.562 436.337 302.377V318H434.184ZM460.727 318V302.509C460.727 300.107 460.221 298.364 459.21 297.28C458.2 296.181 456.632 295.632 454.508 295.632C451.652 295.632 449.557 296.357 448.224 297.807C446.906 299.243 446.247 301.579 446.247 304.816V318H444.071V294.116H445.917L446.334 297.39H446.466C448.019 294.899 450.78 293.654 454.75 293.654C460.17 293.654 462.88 296.562 462.88 302.377V318H460.727ZM480.26 318.439C476.789 318.439 474.079 317.37 472.13 315.231C470.197 313.093 469.23 310.097 469.23 306.245C469.23 302.436 470.167 299.389 472.042 297.104C473.917 294.804 476.444 293.654 479.623 293.654C482.436 293.654 484.655 294.636 486.281 296.599C487.907 298.562 488.72 301.228 488.72 304.597V306.354H471.515C471.544 309.636 472.306 312.141 473.8 313.869C475.309 315.598 477.462 316.462 480.26 316.462C481.623 316.462 482.816 316.367 483.842 316.176C484.882 315.986 486.193 315.576 487.775 314.946V316.923C486.427 317.509 485.182 317.905 484.04 318.11C482.897 318.33 481.637 318.439 480.26 318.439ZM479.623 295.588C477.323 295.588 475.478 296.35 474.086 297.873C472.694 299.382 471.881 301.564 471.647 304.421H486.413C486.413 301.652 485.812 299.492 484.611 297.939C483.41 296.372 481.747 295.588 479.623 295.588ZM504.848 318.439C501.435 318.439 498.761 317.363 496.828 315.209C494.894 313.056 493.927 310.053 493.927 306.201C493.927 302.246 494.931 299.169 496.938 296.972C498.944 294.76 501.691 293.654 505.177 293.654C507.243 293.654 509.22 294.013 511.11 294.731L510.517 296.665C508.451 295.976 506.657 295.632 505.133 295.632C502.204 295.632 499.984 296.54 498.476 298.356C496.967 300.158 496.212 302.758 496.212 306.157C496.212 309.379 496.967 311.906 498.476 313.737C499.984 315.554 502.094 316.462 504.804 316.462C506.972 316.462 508.986 316.074 510.846 315.297V317.319C509.323 318.066 507.323 318.439 504.848 318.439ZM523.019 316.506C524.396 316.506 525.597 316.389 526.623 316.154V317.912C525.568 318.264 524.352 318.439 522.975 318.439C520.866 318.439 519.306 317.875 518.295 316.748C517.299 315.62 516.801 313.847 516.801 311.43V296.005H513.263V294.731L516.801 293.742L517.899 288.337H519.02V294.116H526.029V296.005H519.02V311.123C519.02 312.954 519.342 314.309 519.987 315.188C520.631 316.066 521.642 316.506 523.019 316.506Z" fill="black"/>
</svg>
