<svg width="116" height="28" viewBox="0 0 116 28" fill="none" xmlns="http://www.w3.org/2000/svg">
<path d="M19.873 27H18.7129L16.8496 24.416C16.3926 24.8262 15.9062 25.2129 15.3906 25.5762C14.8867 25.9277 14.3535 26.2383 13.791 26.5078C13.2285 26.7656 12.6484 26.9707 12.0508 27.123C11.4648 27.2754 10.8672 27.3516 10.2578 27.3516C8.93359 27.3516 7.68555 27.1055 6.51367 26.6133C5.35352 26.1094 4.33398 25.418 3.45508 24.5391C2.58789 23.6484 1.90234 22.5996 1.39844 21.3926C0.894531 20.1738 0.642578 18.8496 0.642578 17.4199C0.642578 16.002 0.894531 14.6836 1.39844 13.4648C1.90234 12.2461 2.58789 11.1914 3.45508 10.3008C4.33398 9.41016 5.35352 8.71289 6.51367 8.20898C7.68555 7.70508 8.93359 7.45312 10.2578 7.45312C10.6797 7.45312 11.1133 7.48828 11.5586 7.55859C12.0156 7.62891 12.4551 7.74609 12.877 7.91016C13.3105 8.0625 13.7148 8.26758 14.0898 8.52539C14.4648 8.7832 14.7812 9.09961 15.0391 9.47461V0.685547H19.873V27ZM15.0391 17.4199C15.0391 16.7637 14.9102 16.1309 14.6523 15.5215C14.4062 14.9004 14.0664 14.3555 13.6328 13.8867C13.1992 13.4062 12.6895 13.0254 12.1035 12.7441C11.5293 12.4512 10.9141 12.3047 10.2578 12.3047C9.60156 12.3047 8.98047 12.4219 8.39453 12.6562C7.82031 12.8906 7.31641 13.2305 6.88281 13.6758C6.46094 14.1094 6.12695 14.6426 5.88086 15.2754C5.63477 15.9082 5.51172 16.623 5.51172 17.4199C5.51172 18.1113 5.63477 18.7676 5.88086 19.3887C6.12695 20.0098 6.46094 20.5547 6.88281 21.0234C7.31641 21.4922 7.82031 21.8613 8.39453 22.1309C8.98047 22.4004 9.60156 22.5352 10.2578 22.5352C10.9141 22.5352 11.5293 22.3945 12.1035 22.1133C12.6895 21.8203 13.1992 21.4395 13.6328 20.9707C14.0664 20.4902 14.4062 19.9453 14.6523 19.3359C14.9102 18.7148 15.0391 18.0762 15.0391 17.4199Z" fill="#300900"/>
<path d="M41.7402 17.4199C41.7402 18.8262 41.4883 20.1387 40.9844 21.3574C40.4805 22.5645 39.7949 23.6133 38.9277 24.5039C38.0605 25.3828 37.041 26.0801 35.8691 26.5957C34.709 27.0996 33.4609 27.3516 32.125 27.3516C30.8008 27.3516 29.5527 27.0996 28.3809 26.5957C27.2207 26.0801 26.2012 25.3828 25.3223 24.5039C24.4551 23.6133 23.7695 22.5645 23.2656 21.3574C22.7617 20.1387 22.5098 18.8262 22.5098 17.4199C22.5098 15.9902 22.7617 14.666 23.2656 13.4473C23.7695 12.2285 24.4551 11.1797 25.3223 10.3008C26.2012 9.41016 27.2207 8.71289 28.3809 8.20898C29.5527 7.70508 30.8008 7.45312 32.125 7.45312C33.4609 7.45312 34.709 7.69336 35.8691 8.17383C37.041 8.64258 38.0605 9.31641 38.9277 10.1953C39.7949 11.0625 40.4805 12.1113 40.9844 13.3418C41.4883 14.5605 41.7402 15.9199 41.7402 17.4199ZM36.9062 17.4199C36.9062 16.6465 36.7773 15.9492 36.5195 15.3281C36.2734 14.6953 35.9336 14.1562 35.5 13.7109C35.0664 13.2539 34.5566 12.9082 33.9707 12.6738C33.3965 12.4277 32.7812 12.3047 32.125 12.3047C31.4688 12.3047 30.8477 12.4277 30.2617 12.6738C29.6875 12.9082 29.1836 13.2539 28.75 13.7109C28.3281 14.1562 27.9941 14.6953 27.748 15.3281C27.502 15.9492 27.3789 16.6465 27.3789 17.4199C27.3789 18.1465 27.502 18.8203 27.748 19.4414C27.9941 20.0625 28.3281 20.6016 28.75 21.0586C29.1836 21.5156 29.6875 21.8789 30.2617 22.1484C30.8477 22.4062 31.4688 22.5352 32.125 22.5352C32.7812 22.5352 33.3965 22.4121 33.9707 22.166C34.5566 21.9199 35.0664 21.5742 35.5 21.1289C35.9336 20.6836 36.2734 20.1445 36.5195 19.5117C36.7773 18.8789 36.9062 18.1816 36.9062 17.4199Z" fill="#300900"/>
<path d="M53.6934 27C52.5332 27 51.4434 26.7832 50.4238 26.3496C49.4043 25.9043 48.5078 25.3008 47.7344 24.5391C46.9727 23.7656 46.3691 22.8691 45.9238 21.8496C45.4902 20.8301 45.2734 19.7402 45.2734 18.5801V12.9902H42.9355V8.20898H45.2734V0.685547H50.0547V8.20898H57.332V12.9902H50.0547V18.5801C50.0547 19.084 50.1484 19.5586 50.3359 20.0039C50.5234 20.4375 50.7812 20.8184 51.1094 21.1465C51.4375 21.4746 51.8242 21.7383 52.2695 21.9375C52.7148 22.125 53.1895 22.2188 53.6934 22.2188H57.332V27H53.6934Z" fill="#300900"/>
<path d="M64.8379 27H60.0391V0.685547H64.8379V9C65.4121 8.56641 66.0039 8.26172 66.6133 8.08594C67.2227 7.89844 67.8438 7.80469 68.4766 7.80469C69.6367 7.80469 70.7266 8.02734 71.7461 8.47266C72.7656 8.90625 73.6504 9.50977 74.4004 10.2832C75.1621 11.0449 75.7598 11.9414 76.1934 12.9727C76.6387 13.9922 76.8613 15.082 76.8613 16.2422V27H72.0273V16.2422H72.0625C72.0625 15.75 71.9688 15.2871 71.7812 14.8535C71.5938 14.4082 71.3359 14.0215 71.0078 13.6934C70.6797 13.3652 70.2988 13.1074 69.8652 12.9199C69.4316 12.7324 68.9688 12.6387 68.4766 12.6387C67.9727 12.6387 67.498 12.7324 67.0527 12.9199C66.6074 13.1074 66.2207 13.3652 65.8926 13.6934C65.5645 14.0215 65.3066 14.4082 65.1191 14.8535C64.9316 15.2871 64.8379 15.75 64.8379 16.2422V27Z" fill="#300900"/>
<path d="M98.5176 27H97.3574L95.4941 24.416C95.0371 24.8262 94.5508 25.2129 94.0352 25.5762C93.5312 25.9277 92.998 26.2383 92.4355 26.5078C91.873 26.7656 91.293 26.9707 90.6953 27.123C90.1094 27.2754 89.5117 27.3516 88.9023 27.3516C87.5781 27.3516 86.3301 27.1289 85.1582 26.6836C83.998 26.2383 82.9785 25.5938 82.0996 24.75C81.2324 23.8945 80.5469 22.8516 80.043 21.6211C79.5391 20.3906 79.2871 18.9902 79.2871 17.4199C79.2871 15.9551 79.5391 14.6133 80.043 13.3945C80.5469 12.1641 81.2324 11.1094 82.0996 10.2305C82.9785 9.35156 83.998 8.67188 85.1582 8.19141C86.3301 7.69922 87.5781 7.45312 88.9023 7.45312C89.5117 7.45312 90.1152 7.5293 90.7129 7.68164C91.3105 7.83398 91.8906 8.04492 92.4531 8.31445C93.0156 8.58398 93.5488 8.90039 94.0527 9.26367C94.5684 9.62695 95.0488 10.0195 95.4941 10.4414L97.3574 8.20898H98.5176V27ZM93.6836 17.4199C93.6836 16.7637 93.5547 16.1309 93.2969 15.5215C93.0508 14.9004 92.7109 14.3555 92.2773 13.8867C91.8438 13.4062 91.334 13.0254 90.748 12.7441C90.1738 12.4512 89.5586 12.3047 88.9023 12.3047C88.2461 12.3047 87.625 12.416 87.0391 12.6387C86.4648 12.8613 85.9609 13.1895 85.5273 13.623C85.1055 14.0566 84.7715 14.5957 84.5254 15.2402C84.2793 15.873 84.1562 16.5996 84.1562 17.4199C84.1562 18.2402 84.2793 18.9727 84.5254 19.6172C84.7715 20.25 85.1055 20.7832 85.5273 21.2168C85.9609 21.6504 86.4648 21.9785 87.0391 22.2012C87.625 22.4238 88.2461 22.5352 88.9023 22.5352C89.5586 22.5352 90.1738 22.3945 90.748 22.1133C91.334 21.8203 91.8438 21.4395 92.2773 20.9707C92.7109 20.4902 93.0508 19.9453 93.2969 19.3359C93.5547 18.7148 93.6836 18.0762 93.6836 17.4199Z" fill="#300900"/>
<path d="M111.631 27C110.471 27 109.381 26.7832 108.361 26.3496C107.342 25.9043 106.445 25.3008 105.672 24.5391C104.91 23.7656 104.307 22.8691 103.861 21.8496C103.428 20.8301 103.211 19.7402 103.211 18.5801V12.9902H100.873V8.20898H103.211V0.685547H107.992V8.20898H115.27V12.9902H107.992V18.5801C107.992 19.084 108.086 19.5586 108.273 20.0039C108.461 20.4375 108.719 20.8184 109.047 21.1465C109.375 21.4746 109.762 21.7383 110.207 21.9375C110.652 22.125 111.127 22.2188 111.631 22.2188H115.27V27H111.631Z" fill="#300900"/>
</svg>
